<svg width="141" height="53" viewBox="0 0 141 53" fill="none" xmlns="http://www.w3.org/2000/svg">
<g filter="url(#filter0_d_1007_2)">
<rect x="1.08008" width="138" height="48" rx="24" fill="#B65A0F"/>
</g>
<path d="M47.7429 21.5078C47.6832 20.9496 47.4318 20.5149 46.9886 20.2038C46.5497 19.8928 45.9787 19.7372 45.2756 19.7372C44.7812 19.7372 44.3572 19.8118 44.0035 19.9609C43.6498 20.1101 43.3792 20.3125 43.1917 20.5682C43.0042 20.8239 42.9084 21.1158 42.9041 21.4439C42.9041 21.7166 42.9659 21.9531 43.0895 22.1534C43.2173 22.3537 43.3899 22.5241 43.6072 22.6648C43.8246 22.8011 44.0653 22.9162 44.3295 23.0099C44.5937 23.1037 44.8601 23.1825 45.1285 23.2464L46.3558 23.5533C46.8501 23.6683 47.3253 23.8239 47.7812 24.0199C48.2415 24.2159 48.6527 24.4631 49.0149 24.7614C49.3814 25.0597 49.6711 25.4197 49.8842 25.8416C50.0973 26.2635 50.2038 26.7578 50.2038 27.3246C50.2038 28.0916 50.0078 28.767 49.6158 29.3509C49.2237 29.9304 48.6569 30.3842 47.9155 30.7124C47.1783 31.0362 46.2855 31.1982 45.2372 31.1982C44.2187 31.1982 43.3345 31.0405 42.5845 30.7251C41.8388 30.4098 41.255 29.9496 40.8331 29.3445C40.4155 28.7393 40.1896 28.0021 40.1555 27.1328H42.4886C42.5227 27.5888 42.6633 27.968 42.9105 28.2706C43.1577 28.5732 43.4794 28.799 43.8757 28.9482C44.2763 29.0973 44.7237 29.1719 45.218 29.1719C45.7337 29.1719 46.1854 29.0952 46.5731 28.9418C46.9652 28.7841 47.272 28.5668 47.4936 28.2898C47.7152 28.0085 47.8281 27.6804 47.8324 27.3054C47.8281 26.9645 47.728 26.6832 47.5319 26.4616C47.3359 26.2358 47.0611 26.0483 46.7074 25.8991C46.3579 25.7457 45.9488 25.6094 45.4801 25.4901L43.9908 25.1065C42.9126 24.8295 42.0604 24.4098 41.4339 23.8473C40.8118 23.2805 40.5007 22.5284 40.5007 21.5909C40.5007 20.8196 40.7095 20.1442 41.1271 19.5646C41.549 18.9851 42.1221 18.5355 42.8466 18.2159C43.571 17.892 44.3913 17.7301 45.3075 17.7301C46.2365 17.7301 47.0504 17.892 47.7493 18.2159C48.4524 18.5355 49.0042 18.9808 49.4048 19.5518C49.8054 20.1186 50.0121 20.7706 50.0248 21.5078H47.7429ZM52.4627 19.897V17.9091H62.9073V19.897H58.8611V31H56.5089V19.897H52.4627ZM65.7399 31H63.2086L67.8173 17.9091H70.7449L75.3599 31H72.8287L69.3322 20.5938H69.2299L65.7399 31ZM65.823 25.8672H72.7264V27.772H65.823V25.8672ZM77.8042 31V17.9091H82.7133C83.7189 17.9091 84.5627 18.0838 85.2445 18.4332C85.9306 18.7827 86.4483 19.2727 86.7978 19.9034C87.1515 20.5298 87.3283 21.2607 87.3283 22.0959C87.3283 22.9354 87.1493 23.6641 86.7914 24.282C86.4377 24.8956 85.9157 25.3707 85.2253 25.7074C84.535 26.0398 83.687 26.206 82.6813 26.206H79.1848V24.2372H82.3617C82.9498 24.2372 83.4313 24.1562 83.8063 23.9943C84.1813 23.8281 84.4583 23.5874 84.6373 23.272C84.8205 22.9524 84.9121 22.5604 84.9121 22.0959C84.9121 21.6314 84.8205 21.2351 84.6373 20.907C84.454 20.5746 84.1749 20.3232 83.7999 20.1527C83.4249 19.978 82.9412 19.8906 82.3489 19.8906H80.1756V31H77.8042ZM84.5669 25.0682L87.8077 31H85.1614L81.9782 25.0682H84.5669ZM89.6559 19.897V17.9091H100.101V19.897H96.0543V31H93.7021V19.897H89.6559Z" fill="white"/>
<defs>
<filter id="filter0_d_1007_2" x="0.0800781" y="0" width="140" height="53" filterUnits="userSpaceOnUse" color-interpolation-filters="sRGB">
<feFlood flood-opacity="0" result="BackgroundImageFix"/>
<feColorMatrix in="SourceAlpha" type="matrix" values="0 0 0 0 0 0 0 0 0 0 0 0 0 0 0 0 0 0 127 0" result="hardAlpha"/>
<feMorphology radius="1" operator="dilate" in="SourceAlpha" result="effect1_dropShadow_1007_2"/>
<feOffset dy="4"/>
<feComposite in2="hardAlpha" operator="out"/>
<feColorMatrix type="matrix" values="0 0 0 0 0.552077 0 0 0 0 0.272304 0 0 0 0 0.0355727 0 0 0 1 0"/>
<feBlend mode="normal" in2="BackgroundImageFix" result="effect1_dropShadow_1007_2"/>
<feBlend mode="normal" in="SourceGraphic" in2="effect1_dropShadow_1007_2" result="shape"/>
</filter>
</defs>
</svg>
